# xmcd CD database file
#
# Track frame offsets:
#	150
#	15557
#	46632
#
# Disc length: 998 seconds
#
# Revision: 2
# Processed by: cddbd v1.4PL0 Copyright (c) Steve Scherf et al.
# Submitted via: CDex 1.40PlusFr
#
DISCID=1403e403
DTITLE=Gad Elmaleh - Its kyz my life
DYEAR=2002
DGENRE=Chanson
TTITLE0=Its kyz my life (Radio edit)
TTITLE1=Its kyz my life (Extended edit)
TTITLE2=Its kyz my life (RnB Remix by play Mo'Bitch)
EXTD=YEAR: 2002 ID3G: 102
EXTT0=
EXTT1=
EXTT2=
PLAYORDER=
